<?xml version="1.0" encoding="UTF-8"?>
<svg xmlns="http://www.w3.org/2000/svg" width="128" height="128" viewBox="0 0 128 128" role="img" aria-label="Expense Tracker icon 2">
  <defs>
    <linearGradient id="bg" x1="0" y1="0" x2="1" y2="1">
      <stop offset="0%" stop-color="#1F3A93"/>
      <stop offset="100%" stop-color="#4B197B"/>
    </linearGradient>
    <linearGradient id="coin" x1="0" y1="0" x2="1" y2="1">
      <stop offset="0%" stop-color="#FFD166"/>
      <stop offset="100%" stop-color="#F08A24"/>
    </linearGradient>
    <filter id="drop" x="-20%" y="-20%" width="140%" height="140%">
      <feDropShadow dx="0" dy="6" stdDeviation="8" flood-color="#000" flood-opacity="0.25"/>
    </filter>
  </defs>
  <!-- background -->
  <rect width="128" height="128" rx="18" fill="url(#bg)"/>
  <!-- main wallet -->
  <g transform="translate(14,32)">
    <rect x="0" y="8" width="74" height="50" rx="7" fill="#000" opacity="0.06"/>
    <rect x="0" y="8" width="74" height="50" rx="7" fill="none" stroke="#fff" stroke-opacity="0.12" stroke-width="1.2"/>
    <rect x="6" y="-4" width="52" height="16" rx="5" fill="#fff" opacity="0.08"/>
    <circle cx="66" cy="33" r="5" fill="#fff" opacity="0.12"/>
  </g>
  <!-- chart bars -->
  <g transform="translate(22,44)">
    <rect x="0" y="18" width="6" height="12" rx="2" fill="#ffffff" opacity="0.14"/>
    <rect x="12" y="12" width="6" height="18" rx="2" fill="#ffffff" opacity="0.18"/>
    <rect x="24" y="6" width="6" height="24" rx="2" fill="#ffffff" opacity="0.2"/>
    <rect x="36" y="10" width="6" height="20" rx="2" fill="#ffffff" opacity="0.16"/>
  </g>
  <!-- coin -->
  <g transform="translate(78,30)">
    <circle cx="0" cy="34" r="18" fill="url(#coin)" filter="url(#drop)"/>
    <text x="0" y="40" text-anchor="middle" font-family="Segoe UI, Roboto, Arial" font-size="16" fill="#202020" font-weight="700">€</text>
  </g>
  <!-- subtle shine -->
  <ellipse cx="40" cy="28" rx="36" ry="10" fill="#fff" opacity="0.03"/>
  <!-- border -->
  <rect x="4" y="4" width="120" height="120" rx="16" fill="none" stroke="#000" stroke-opacity="0.06"/>
</svg>